<svg xmlns="http://www.w3.org/2000/svg" width="400" height="320" viewBox="0 0 400 320">
  <title>Original data</title>
  <rect width="400" height="320" fill="white" stroke="black" stroke-width="1"/>
  <g fill="#4a90e2" stroke="black" stroke-width="0.5" opacity="0.85">
    <circle cx="110" cy="210" r="6"/>
    <circle cx="130" cy="190" r="6"/>
    <circle cx="150" cy="170" r="6"/>
    <circle cx="170" cy="150" r="6"/>
    <circle cx="190" cy="140" r="6"/>
    <circle cx="210" cy="130" r="6"/>
    <circle cx="230" cy="125" r="6"/>
    <circle cx="250" cy="120" r="6"/>
    <circle cx="270" cy="130" r="6"/>
    <circle cx="290" cy="150" r="6"/>
  </g>
  <g fill="#e74c3c" stroke="black" stroke-width="0.5" opacity="0.85">
    <circle cx="180" cy="200" r="6"/>
    <circle cx="200" cy="210" r="6"/>
    <circle cx="220" cy="220" r="6"/>
    <circle cx="240" cy="230" r="6"/>
    <circle cx="260" cy="240" r="6"/>
    <circle cx="280" cy="250" r="6"/>
    <circle cx="300" cy="255" r="6"/>
    <circle cx="320" cy="250" r="6"/>
    <circle cx="340" cy="240" r="6"/>
    <circle cx="360" cy="220" r="6"/>
  </g>
  <text x="15" y="25" font-size="16" font-family="Arial" fill="black">Original moon-like data (stylized)</text>
</svg>
